<svg width="200" height="31" viewBox="0 0 200 31" fill="none" xmlns="http://www.w3.org/2000/svg">
<path d="M20.8835 10.0994C20.6089 9.23769 20.2396 8.46591 19.7756 7.78409C19.321 7.0928 18.7765 6.50568 18.142 6.02273C17.5076 5.5303 16.7831 5.15625 15.9688 4.90057C15.1638 4.64489 14.2784 4.51705 13.3125 4.51705C11.6742 4.51705 10.197 4.93845 8.88068 5.78125C7.56439 6.62405 6.52273 7.85985 5.75568 9.48864C4.99811 11.108 4.61932 13.0919 4.61932 15.4403C4.61932 17.7983 5.00284 19.7917 5.76989 21.4205C6.53693 23.0492 7.58807 24.285 8.9233 25.1278C10.2585 25.9706 11.7784 26.392 13.483 26.392C15.0644 26.392 16.4422 26.0701 17.6165 25.4261C18.8002 24.7822 19.714 23.8731 20.358 22.6989C21.0114 21.5152 21.3381 20.1231 21.3381 18.5227L22.4744 18.7358H14.1506V15.1136H25.5852V18.4233C25.5852 20.8665 25.0644 22.9877 24.0227 24.7869C22.9905 26.5767 21.5606 27.9593 19.733 28.9347C17.9148 29.91 15.8314 30.3977 13.483 30.3977C10.8504 30.3977 8.53977 29.7917 6.55114 28.5795C4.57197 27.3674 3.02841 25.6487 1.92045 23.4233C0.8125 21.1884 0.258523 18.5369 0.258523 15.4688C0.258523 13.1487 0.580492 11.0653 1.22443 9.21875C1.86837 7.37216 2.77273 5.80492 3.9375 4.51705C5.11174 3.2197 6.48958 2.23011 8.07102 1.5483C9.66193 0.857007 11.3996 0.511363 13.2841 0.511363C14.8561 0.511363 16.3191 0.74337 17.6733 1.20739C19.0369 1.6714 20.2491 2.32954 21.3097 3.18182C22.3797 4.03409 23.2652 5.04735 23.9659 6.22159C24.6667 7.38636 25.1402 8.67898 25.3864 10.0994H20.8835ZM32.7159 30H28.0568L38.5256 0.90909H43.5966L54.0653 30H49.4062L41.1818 6.19318H40.9545L32.7159 30ZM33.4972 18.608H48.6108V22.3011H33.4972V18.608ZM58.2663 0.90909H63.593L72.8544 23.5227H73.1953L82.4567 0.90909H87.7834V30H83.6072V8.94886H83.3374L74.7578 29.9574H71.2919L62.7124 8.93466H62.4425V30H58.2663V0.90909ZM94.1648 30V0.90909H112.403V4.6875H98.554V13.5511H111.452V17.3153H98.554V26.2216H112.574V30H94.1648Z" fill="white"/>
<path d="M116.945 30V0.90909H124.843V12.2727H135.298V0.90909H143.195V30H135.298V18.6364H124.843V30H116.945ZM164.161 0.90909H172.059V19.5455C172.059 21.7614 171.529 23.679 170.468 25.2983C169.417 26.9081 167.949 28.1534 166.065 29.0341C164.18 29.9053 161.993 30.3409 159.502 30.3409C156.993 30.3409 154.796 29.9053 152.911 29.0341C151.027 28.1534 149.559 26.9081 148.508 25.2983C147.466 23.679 146.945 21.7614 146.945 19.5455V0.90909H154.843V18.8636C154.843 19.7633 155.042 20.5682 155.44 21.2784C155.837 21.9792 156.387 22.5284 157.087 22.9261C157.798 23.3239 158.603 23.5227 159.502 23.5227C160.411 23.5227 161.216 23.3239 161.917 22.9261C162.618 22.5284 163.167 21.9792 163.565 21.2784C163.962 20.5682 164.161 19.7633 164.161 18.8636V0.90909ZM175.812 30V0.90909H188.426C190.642 0.90909 192.503 1.20739 194.009 1.80398C195.524 2.40057 196.665 3.24337 197.432 4.33239C198.208 5.4214 198.597 6.70454 198.597 8.18182C198.597 9.25189 198.36 10.2273 197.886 11.108C197.422 11.9886 196.769 12.7273 195.926 13.3239C195.083 13.911 194.098 14.3182 192.972 14.5455V14.8295C194.222 14.8769 195.358 15.1941 196.381 15.7812C197.403 16.3589 198.218 17.1591 198.824 18.1818C199.43 19.1951 199.733 20.3883 199.733 21.7614C199.733 23.3523 199.316 24.768 198.483 26.0085C197.659 27.2491 196.485 28.2244 194.96 28.9347C193.436 29.6449 191.617 30 189.506 30H175.812ZM183.71 23.6932H187.403C188.729 23.6932 189.723 23.447 190.386 22.9545C191.049 22.4527 191.381 21.714 191.381 20.7386C191.381 20.0568 191.224 19.4792 190.912 19.0057C190.599 18.5322 190.154 18.1723 189.577 17.9261C189.009 17.6799 188.322 17.5568 187.517 17.5568H183.71V23.6932ZM183.71 12.6705H186.949C187.64 12.6705 188.251 12.5616 188.781 12.3438C189.312 12.1259 189.723 11.8134 190.017 11.4062C190.32 10.9896 190.472 10.483 190.472 9.88636C190.472 8.98674 190.15 8.30019 189.506 7.8267C188.862 7.34375 188.047 7.10227 187.062 7.10227H183.71V12.6705Z" fill="#CB5AD6"/>
</svg>
